<?xml version="1.0" encoding="utf-8"?>
<!-- Generator: Adobe Illustrator 23.0.3, SVG Export Plug-In . SVG Version: 6.00 Build 0)  -->
<svg version="1.1" id="Layer_1" xmlns="http://www.w3.org/2000/svg" xmlns:xlink="http://www.w3.org/1999/xlink" x="0px" y="0px"
	 viewBox="0 0 240.94 200.13" style="enable-background:new 0 0 240.94 200.13;" xml:space="preserve">
<style type="text/css">
	.st0{fill:#B3B3B3;}
	.st1{fill:#70CDDC;}
	.st2{fill:#2F79AD;}
	.st3{fill:#F37F86;}
	.st4{fill:#FACE41;}
	.st5{fill:#5BABDF;}
	.st6{fill:#AE99C9;}
	.st7{fill:none;stroke:#B3B3B3;stroke-width:0;stroke-linecap:round;stroke-linejoin:round;}
	.st8{fill:#F89C5F;}
	.st9{fill:#B9D86E;}
	.st10{fill:#FFFFFF;}
	.st11{fill:none;stroke:#B3B3B3;stroke-width:8.64;stroke-linejoin:round;stroke-miterlimit:10;}
	.st12{fill:#BCBEC0;}
</style>
<path class="st0" d="M158.68,41.82c0-18.54,12.22-34.24,29.04-39.46c-3-1.5-6.37-2.35-9.95-2.35H100v109.62L68.89,90.95
	l-31.11,18.67V0H22.23C9.95,0,0,9.95,0,22.23v155.53C0,190.05,9.95,200,22.23,200h155.53c12.28,0,22.23-9.95,22.23-22.23V83.14
	C177.18,83.14,158.68,64.64,158.68,41.82z"/>
<path class="st4" d="M200,0.5c-4.28,0-8.4,0.65-12.28,1.86c-16.82,5.23-29.04,20.92-29.04,39.46c0,22.82,18.5,41.32,41.32,41.32
	c22.82,0,41.32-18.5,41.32-41.32S222.82,0.5,200,0.5z M225.41,35.92l-12.78,11.07l3.83,16.47c0.27,1.14-0.97,2.05-1.98,1.44
	L200,56.17l-14.48,8.73c-1.01,0.61-2.24-0.29-1.98-1.44l3.83-16.47l-12.78-11.08c-0.89-0.77-0.41-2.23,0.76-2.33l16.85-1.45
	l6.58-15.57c0.46-1.08,1.99-1.08,2.45,0l6.58,15.58l16.85,1.45C225.82,33.69,226.3,35.15,225.41,35.92z"/>
</svg>
