<?xml version="1.0" encoding="utf-8"?>
<!-- Generator: Adobe Illustrator 23.0.3, SVG Export Plug-In . SVG Version: 6.00 Build 0)  -->
<svg version="1.1" id="Layer_1" xmlns="http://www.w3.org/2000/svg" xmlns:xlink="http://www.w3.org/1999/xlink" x="0px" y="0px"
	 viewBox="0 0 200 200.01" style="enable-background:new 0 0 200 200.01;" xml:space="preserve">
<style type="text/css">
	.st0{fill:#B3B3B3;}
	.st1{fill:#70CDDC;}
	.st2{fill:#2F79AD;}
	.st3{fill:#F37F86;}
	.st4{fill:#FACE41;}
	.st5{fill:#5BABDF;}
	.st6{fill:#AE99C9;}
	.st7{fill:none;stroke:#B3B3B3;stroke-width:0;stroke-linecap:round;stroke-linejoin:round;}
	.st8{fill:#F89C5F;}
	.st9{fill:#B9D86E;}
	.st10{fill:#FFFFFF;}
	.st11{fill:none;stroke:#B3B3B3;stroke-width:8.64;stroke-linejoin:round;stroke-miterlimit:10;}
	.st12{fill:#BCBEC0;}
</style>
<path class="st0" d="M11.1,200.01h32.66c6.13,0,11.1-4.97,11.1-11.1v-32.66c0-6.13-4.97-11.1-11.1-11.1H32.83v-29.92H94.6v29.92
	H83.67c-6.13,0-11.1,4.97-11.1,11.1v32.66c0,6.13,4.97,11.1,11.1,11.1h32.66c6.13,0,11.1-4.97,11.1-11.1v-32.66
	c0-6.13-4.97-11.1-11.1-11.1H105.4v-29.92h61.77v29.92h-10.93c-6.13,0-11.1,4.97-11.1,11.1v32.66c0,6.13,4.97,11.1,11.1,11.1h32.66
	c6.13,0,11.1-4.97,11.1-11.1v-32.66c0-6.13-4.97-11.1-11.1-11.1h-10.93v-40.72H105.4V75.52h60.65c7.64,0,13.83-6.19,13.83-13.82
	V13.82c0-7.64-6.19-13.82-13.83-13.82H33.95c-7.64,0-13.82,6.19-13.82,13.82V61.7c0,7.64,6.19,13.82,13.82,13.82H94.6v28.91H22.03
	v40.72H11.1c-6.13,0-11.1,4.97-11.1,11.1v32.66C0,195.04,4.97,200.01,11.1,200.01z"/>
</svg>
