<?xml version="1.0" encoding="utf-8"?>
<!-- Generator: Adobe Illustrator 23.0.3, SVG Export Plug-In . SVG Version: 6.00 Build 0)  -->
<svg version="1.1" id="Layer_1" xmlns="http://www.w3.org/2000/svg" xmlns:xlink="http://www.w3.org/1999/xlink" x="0px" y="0px"
	 viewBox="0 0 240.94 200.13" style="enable-background:new 0 0 240.94 200.13;" xml:space="preserve">
<style type="text/css">
	.st0{fill:#B3B3B3;}
	.st1{fill:#70CDDC;}
	.st2{fill:#2F79AD;}
	.st3{fill:#F37F86;}
	.st4{fill:#FACE41;}
	.st5{fill:#5BABDF;}
	.st6{fill:#AE99C9;}
	.st7{fill:none;stroke:#B3B3B3;stroke-width:0;stroke-linecap:round;stroke-linejoin:round;}
	.st8{fill:#F89C5F;}
	.st9{fill:#B9D86E;}
	.st10{fill:#FFFFFF;}
	.st11{fill:none;stroke:#B3B3B3;stroke-width:8.64;stroke-linejoin:round;stroke-miterlimit:10;}
	.st12{fill:#BCBEC0;}
</style>
<path class="st0" d="M192.96,82.53v54.7l-21.61-12.96l-21.61,12.96V61.1h-34.05v3v15.05c7.44,1.38,13.1,7.92,13.1,15.76v19.42
	c0,8.84-7.19,16.03-16.03,16.03H93.34c-4.65,0-8.83-1.99-11.76-5.16v52.56c0,12.28,9.95,22.23,22.23,22.23h94.43
	c12.28,0,22.23-9.95,22.23-22.23V83.34c0-1.82-0.22-3.58-0.63-5.27c-5.89,3.23-12.65,5.07-19.84,5.07
	C197.6,83.14,195.25,82.92,192.96,82.53z"/>
<path class="st0" d="M81.6,82.45c-0.01,0.29-0.02,0.59-0.02,0.89v0.71c0.53-0.58,1.12-1.1,1.73-1.59H81.6z"/>
<path class="st0" d="M69.61,88.31h-6.5V70.52h36.73v17.79h-6.5c-3.64,0-6.6,2.95-6.6,6.6v19.42c0,3.64,2.95,6.6,6.6,6.6h19.42
	c3.64,0,6.6-2.95,6.6-6.6V94.91c0-3.64-2.95-6.6-6.6-6.6h-6.5V64.1H63.11V46.91h36.06c4.54,0,8.22-3.68,8.22-8.22V10.23
	c0-4.54-3.68-8.22-8.22-8.22H20.63c-4.54,0-8.22,3.68-8.22,8.22v28.47c0,4.54,3.68,8.22,8.22,8.22h36.06V64.1H13.54v24.21h-6.5
	c-3.64,0-6.6,2.95-6.6,6.6v19.42c0,3.64,2.95,6.6,6.6,6.6h19.42c3.64,0,6.6-2.95,6.6-6.6V94.91c0-3.64-2.95-6.6-6.6-6.6h-6.5V70.52
	h36.73v17.79h-6.5c-3.64,0-6.6,2.95-6.6,6.6v19.42c0,3.64,2.95,6.6,6.6,6.6h19.42c3.64,0,6.6-2.95,6.6-6.6V94.91
	C76.21,91.27,73.25,88.31,69.61,88.31z"/>
<path class="st4" d="M241.32,41.82C241.32,19,222.82,0.5,200,0.5c-22.82,0-41.32,18.5-41.32,41.32c0,6.84,1.67,13.29,4.62,18.97
	c5.84,11.28,16.72,19.52,29.67,21.74c2.29,0.39,4.64,0.61,7.04,0.61c7.19,0,13.95-1.84,19.84-5.07
	C232.64,71.05,241.32,57.45,241.32,41.82z M225.41,35.92l-12.78,11.07l3.83,16.47c0.27,1.14-0.97,2.05-1.98,1.44L200,56.17
	l-14.48,8.73c-1.01,0.61-2.24-0.29-1.98-1.44l3.83-16.47l-12.78-11.08c-0.89-0.77-0.41-2.23,0.76-2.33l16.85-1.45l6.58-15.57
	c0.46-1.08,1.99-1.08,2.45,0l6.58,15.58l16.85,1.45C225.82,33.69,226.3,35.15,225.41,35.92z"/>
</svg>
